<svg width="512" height="512" viewBox="0 0 512 512" fill="none" xmlns="http://www.w3.org/2000/svg"><defs><linearGradient id="g1" x1="90" y1="72" x2="430" y2="442" gradientUnits="userSpaceOnUse"><stop stop-color="#79F0DF"/><stop offset="1" stop-color="#3DD8C3"/></linearGradient><linearGradient id="g2" x1="120" y1="96" x2="405" y2="416" gradientUnits="userSpaceOnUse"><stop stop-color="#0E1824"/><stop offset="1" stop-color="#112235"/></linearGradient></defs><rect x="36" y="36" width="440" height="440" rx="110" fill="url(#g2)"/><path d="M160 118C160 104.745 170.745 94 184 94H220C233.255 94 244 104.745 244 118V222H268V118C268 104.745 278.745 94 292 94H328C341.255 94 352 104.745 352 118V394C352 407.255 341.255 418 328 418H292C278.745 418 268 407.255 268 394V286H244V394C244 407.255 233.255 418 220 418H184C170.745 418 160 407.255 160 394V118Z" fill="url(#g1)"/><rect x="216" y="222" width="80" height="64" rx="20" fill="#DDFCF8" fill-opacity="0.16"/><path d="M126 120L160 120V394H126C112.745 394 102 383.255 102 370V144C102 130.745 112.745 120 126 120Z" fill="url(#g1)" fill-opacity="0.18"/><path d="M386 120H352V394H386C399.255 394 410 383.255 410 370V144C410 130.745 399.255 120 386 120Z" fill="url(#g1)" fill-opacity="0.18"/></svg>
